<svg width="800" height="600" viewBox="0 0 800 600" fill="none" xmlns="http://www.w3.org/2000/svg">
<path d="M0 0H91.0379V250H0L0 0Z" fill="#1E30D3"/>
<path d="M250 0H150.602V49.1968L80.0528 116.446H189.901L250 50.2008V0Z" fill="#1E30D3"/>
<path d="M250 250H150.602V211.465L80.0528 134.719H189.901L250 196.847V250Z" fill="#1E30D3"/>
<path d="M500 81.5392C476.546 81.4069 445.091 81.5392 438.619 81.5392C409.897 56.2993 384.977 28.1655 359.206 0V250H275L275 0H500V81.5392Z" fill="#1E30D3"/>
<path d="M610.279 0H525L579.136 126.225H664.415L610.279 0Z" fill="#1E30D3"/>
<path d="M800 0H714.721L617.942 250H703.22L800 0Z" fill="#1E30D3"/>
<path d="M4.44861 407.386V352.478H13.612V377.95L35.4748 352.478H46.7294L23.1936 379.399L48.3264 407.386H36.6915L13.612 381.763V407.386H4.44861Z" fill="white"/>
<path d="M68.7765 408.53C64.67 408.53 61.0833 407.602 58.0161 405.747C54.949 403.891 52.5663 401.336 50.8679 398.083C49.195 394.803 48.3585 391.041 48.3585 386.796C48.3585 382.474 49.2203 378.687 50.944 375.433C52.6677 372.179 55.0631 369.637 58.1302 367.807C61.1973 365.977 64.7461 365.062 68.7765 365.062C72.9082 365.062 76.5077 365.989 79.5748 367.845C82.6419 369.701 85.0247 372.268 86.723 375.547C88.4213 378.801 89.2705 382.551 89.2705 386.796C89.2705 391.067 88.4086 394.841 86.685 398.121C84.9866 401.375 82.6039 403.929 79.5368 405.785C76.4696 407.615 72.8829 408.53 68.7765 408.53ZM68.7765 399.913C72.4266 399.913 75.1389 398.693 76.9132 396.252C78.6876 393.812 79.5748 390.66 79.5748 386.796C79.5748 382.805 78.6749 379.627 76.8752 377.263C75.0755 374.874 72.3759 373.679 68.7765 373.679C66.3177 373.679 64.2898 374.238 62.6929 375.357C61.1213 376.45 59.9553 377.988 59.1948 379.971C58.4344 381.928 58.0542 384.203 58.0542 386.796C58.0542 390.787 58.954 393.977 60.7537 396.367C62.5788 398.731 65.253 399.913 68.7765 399.913Z" fill="white"/>
<path d="M115.48 408.53C111.247 408.53 107.635 407.59 104.644 405.709C101.653 403.802 99.3589 401.209 97.7619 397.93C96.1904 394.651 95.3919 390.939 95.3665 386.796C95.3919 382.576 96.2157 378.839 97.838 375.586C99.4856 372.306 101.818 369.739 104.834 367.883C107.851 366.002 111.437 365.062 115.594 365.062C120.258 365.062 124.2 366.244 127.419 368.608C130.664 370.946 132.781 374.149 133.769 378.217L124.644 380.695C123.934 378.483 122.755 376.768 121.108 375.547C119.46 374.302 117.584 373.679 115.48 373.679C113.098 373.679 111.133 374.251 109.587 375.395C108.041 376.513 106.9 378.064 106.165 380.047C105.43 382.03 105.062 384.279 105.062 386.796C105.062 390.711 105.937 393.876 107.686 396.29C109.435 398.705 112.033 399.913 115.48 399.913C117.914 399.913 119.828 399.354 121.222 398.235C122.641 397.117 123.706 395.502 124.416 393.393L133.769 395.49C132.502 399.684 130.284 402.912 127.115 405.175C123.947 407.412 120.068 408.53 115.48 408.53Z" fill="white"/>
<path d="M151.47 407.386V374.365H137.744V366.205H174.359V374.365H160.633V407.386H151.47Z" fill="white"/>
<path d="M201.298 408.53C197.293 408.53 193.934 407.577 191.222 405.671C188.51 403.764 186.469 401.171 185.1 397.892C183.732 394.587 183.047 390.889 183.047 386.796C183.047 382.652 183.732 378.941 185.1 375.662C186.469 372.383 188.472 369.802 191.108 367.921C193.77 366.015 197.052 365.062 200.956 365.062C204.834 365.062 208.193 366.015 211.032 367.921C213.896 369.802 216.114 372.383 217.686 375.662C219.257 378.916 220.043 382.627 220.043 386.796C220.043 390.914 219.27 394.613 217.724 397.892C216.177 401.171 213.997 403.764 211.184 405.671C208.37 407.577 205.075 408.53 201.298 408.53ZM181.488 425.689V366.205H189.587V395.108H190.728V425.689H181.488ZM199.891 400.294C202.274 400.294 204.238 399.697 205.785 398.502C207.331 397.307 208.471 395.693 209.207 393.659C209.967 391.6 210.347 389.313 210.347 386.796C210.347 384.305 209.967 382.042 209.207 380.009C208.446 377.95 207.267 376.323 205.671 375.128C204.074 373.908 202.046 373.298 199.587 373.298C197.255 373.298 195.354 373.87 193.884 375.014C192.413 376.132 191.323 377.708 190.614 379.742C189.929 381.75 189.587 384.101 189.587 386.796C189.587 389.465 189.929 391.816 190.614 393.85C191.323 395.884 192.426 397.472 193.922 398.616C195.442 399.735 197.432 400.294 199.891 400.294Z" fill="white"/>
<path d="M246.561 408.53C242.454 408.53 238.867 407.602 235.8 405.747C232.733 403.891 230.35 401.336 228.652 398.083C226.979 394.803 226.143 391.041 226.143 386.796C226.143 382.474 227.004 378.687 228.728 375.433C230.452 372.179 232.847 369.637 235.914 367.807C238.981 365.977 242.53 365.062 246.561 365.062C250.692 365.062 254.292 365.989 257.359 367.845C260.426 369.701 262.809 372.268 264.507 375.547C266.205 378.801 267.055 382.551 267.055 386.796C267.055 391.067 266.193 394.841 264.469 398.121C262.771 401.375 260.388 403.929 257.321 405.785C254.254 407.615 250.667 408.53 246.561 408.53ZM246.561 399.913C250.211 399.913 252.923 398.693 254.697 396.252C256.472 393.812 257.359 390.66 257.359 386.796C257.359 382.805 256.459 379.627 254.659 377.263C252.86 374.874 250.16 373.679 246.561 373.679C244.102 373.679 242.074 374.238 240.477 375.357C238.905 376.45 237.739 377.988 236.979 379.971C236.218 381.928 235.838 384.203 235.838 386.796C235.838 390.787 236.738 393.977 238.538 396.367C240.363 398.731 243.037 399.913 246.561 399.913Z" fill="white"/>
<path d="M275.356 407.386V366.205H282.884L297.599 394.651L312.352 366.205H319.842V407.386H311.097V384.699L299.424 407.386H295.812L284.139 384.699V407.386H275.356Z" fill="white"/>
<path d="M348.293 408.53C344.06 408.53 340.448 407.59 337.456 405.709C334.465 403.802 332.171 401.209 330.574 397.93C329.003 394.651 328.204 390.939 328.179 386.796C328.204 382.576 329.028 378.839 330.65 375.586C332.298 372.306 334.63 369.739 337.647 367.883C340.663 366.002 344.25 365.062 348.407 365.062C353.071 365.062 357.013 366.244 360.232 368.608C363.476 370.946 365.593 374.149 366.582 378.217L357.456 380.695C356.746 378.483 355.568 376.768 353.92 375.547C352.273 374.302 350.397 373.679 348.293 373.679C345.91 373.679 343.946 374.251 342.399 375.395C340.853 376.513 339.712 378.064 338.977 380.047C338.242 382.03 337.875 384.279 337.875 386.796C337.875 390.711 338.749 393.876 340.498 396.29C342.247 398.705 344.845 399.913 348.293 399.913C350.726 399.913 352.64 399.354 354.034 398.235C355.454 397.117 356.518 395.502 357.228 393.393L366.582 395.49C365.314 399.684 363.096 402.912 359.928 405.175C356.759 407.412 352.881 408.53 348.293 408.53Z" fill="white"/>
<path d="M374.125 407.386L374.201 366.205H383.478V386.033L398.497 366.205H409.942L394.011 386.796L411.311 407.386H399.182L383.478 387.559V407.386H374.125Z" fill="white"/>
<path d="M432.513 408.53C428.407 408.53 424.82 407.602 421.753 405.747C418.686 403.891 416.303 401.336 414.605 398.083C412.932 394.803 412.095 391.041 412.095 386.796C412.095 382.474 412.957 378.687 414.681 375.433C416.405 372.179 418.8 369.637 421.867 367.807C424.934 365.977 428.483 365.062 432.513 365.062C436.645 365.062 440.245 365.989 443.312 367.845C446.379 369.701 448.762 372.268 450.46 375.547C452.158 378.801 453.008 382.551 453.008 386.796C453.008 391.067 452.146 394.841 450.422 398.121C448.724 401.375 446.341 403.929 443.274 405.785C440.207 407.615 436.62 408.53 432.513 408.53ZM432.513 399.913C436.164 399.913 438.876 398.693 440.65 396.252C442.425 393.812 443.312 390.66 443.312 386.796C443.312 382.805 442.412 379.627 440.612 377.263C438.813 374.874 436.113 373.679 432.513 373.679C430.055 373.679 428.027 374.238 426.43 375.357C424.858 376.45 423.692 377.988 422.932 379.971C422.171 381.928 421.791 384.203 421.791 386.796C421.791 390.787 422.691 393.977 424.491 396.367C426.316 398.731 428.99 399.913 432.513 399.913Z" fill="white"/>
<path d="M480.358 361.554C478.254 361.554 476.328 361.032 474.579 359.99C472.83 358.948 471.435 357.563 470.396 355.834C469.357 354.08 468.837 352.135 468.837 350H475.985C475.985 351.22 476.404 352.262 477.24 353.127C478.102 353.966 479.141 354.385 480.358 354.385C481.575 354.385 482.601 353.966 483.438 353.127C484.3 352.262 484.731 351.22 484.731 350H491.879C491.879 352.135 491.359 354.08 490.32 355.834C489.281 357.563 487.886 358.948 486.137 359.99C484.388 361.032 482.462 361.554 480.358 361.554ZM496.974 366.205V407.386H488.191V380.504L468.647 407.386H461.309V366.205H470.092V392.401L489.712 366.205H496.974Z" fill="white"/>
<path d="M4.44861 494.542V453.361H33.7258V461.978H13.612V494.542H4.44861Z" fill="white"/>
<path d="M58.3797 495.686C54.2733 495.686 50.6865 494.758 47.6194 492.902C44.5523 491.047 42.1695 488.492 40.4712 485.238C38.7982 481.959 37.9617 478.197 37.9617 473.951C37.9617 469.63 38.8236 465.842 40.5472 462.589C42.2709 459.335 44.6663 456.793 47.7335 454.962C50.8006 453.132 54.3494 452.217 58.3797 452.217C62.5115 452.217 66.1109 453.145 69.1781 455.001C72.2452 456.856 74.6279 459.424 76.3263 462.703C78.0246 465.957 78.8738 469.706 78.8738 473.951C78.8738 478.222 78.0119 481.997 76.2882 485.276C74.5899 488.53 72.2072 491.085 69.14 492.94C66.0729 494.771 62.4861 495.686 58.3797 495.686ZM58.3797 487.068C62.0299 487.068 64.7421 485.848 66.5165 483.408C68.2909 480.967 69.1781 477.815 69.1781 473.951C69.1781 469.96 68.2782 466.783 66.4785 464.419C64.6788 462.029 61.9792 460.835 58.3797 460.835C55.9209 460.835 53.8931 461.394 52.2962 462.512C50.7246 463.605 49.5585 465.143 48.7981 467.126C48.0376 469.083 47.6574 471.359 47.6574 473.951C47.6574 477.942 48.5573 481.133 50.357 483.522C52.1821 485.886 54.8563 487.068 58.3797 487.068Z" fill="white"/>
<path d="M105.084 495.686C100.85 495.686 97.2383 494.745 94.2473 492.864C91.2562 490.958 88.9621 488.365 87.3652 485.086C85.7936 481.806 84.9952 478.095 84.9698 473.951C84.9952 469.732 85.819 465.995 87.4413 462.741C89.0889 459.462 91.4209 456.894 94.4374 455.039C97.4538 453.158 101.041 452.217 105.198 452.217C109.862 452.217 113.803 453.399 117.023 455.763C120.267 458.102 122.384 461.305 123.372 465.372L114.247 467.851C113.537 465.639 112.359 463.923 110.711 462.703C109.063 461.457 107.188 460.835 105.084 460.835C102.701 460.835 100.736 461.406 99.1902 462.55C97.6439 463.669 96.5032 465.22 95.7681 467.202C95.033 469.185 94.6655 471.435 94.6655 473.951C94.6655 477.866 95.54 481.031 97.289 483.446C99.0381 485.861 101.636 487.068 105.084 487.068C107.517 487.068 109.431 486.509 110.825 485.391C112.244 484.272 113.309 482.658 114.019 480.548L123.372 482.645C122.105 486.84 119.887 490.068 116.718 492.33C113.55 494.567 109.672 495.686 105.084 495.686Z" fill="white"/>
<path d="M134.906 512.845L142.814 491.072L142.966 497.478L125.058 453.361H134.601L147.301 486.001H144.867L157.225 453.361H166.388L143.499 512.845H134.906Z" fill="white"/>
<path d="M167.532 503.693V487.335C169.762 487.335 171.347 486.573 172.285 485.047C173.222 483.522 173.97 480.878 174.528 477.116C174.883 474.879 175.174 472.515 175.402 470.024C175.63 467.533 175.821 464.902 175.973 462.131C176.15 459.36 176.302 456.437 176.429 453.361H206.999V487.335H211.143V503.693H202.474V494.542H176.163V503.693H167.532ZM179.813 487.335H197.874V460.568H184.452C184.376 462.093 184.287 463.656 184.186 465.258C184.084 466.834 183.97 468.41 183.843 469.986C183.717 471.562 183.577 473.074 183.425 474.523C183.298 475.947 183.146 477.269 182.969 478.489C182.69 480.624 182.348 482.378 181.942 483.751C181.537 485.124 180.827 486.318 179.813 487.335Z" fill="white"/>
<path d="M230.253 495.686C227.287 495.686 224.777 495.127 222.724 494.008C220.671 492.864 219.112 491.352 218.047 489.471C217.008 487.589 216.488 485.518 216.488 483.255C216.488 481.272 216.818 479.493 217.477 477.917C218.136 476.315 219.15 474.943 220.519 473.799C221.888 472.63 223.662 471.676 225.842 470.939C227.49 470.405 229.416 469.922 231.621 469.49C233.852 469.058 236.26 468.664 238.846 468.308C241.456 467.927 244.181 467.52 247.02 467.088L243.75 468.956C243.776 466.109 243.142 464.012 241.849 462.665C240.557 461.317 238.377 460.644 235.31 460.644C233.459 460.644 231.672 461.076 229.948 461.94C228.225 462.805 227.021 464.292 226.336 466.402L217.971 463.771C218.985 460.288 220.912 457.492 223.751 455.382C226.615 453.272 230.468 452.217 235.31 452.217C238.96 452.217 242.166 452.814 244.929 454.009C247.717 455.204 249.783 457.161 251.127 459.881C251.862 461.33 252.305 462.817 252.458 464.343C252.61 465.842 252.686 467.482 252.686 469.261V494.542H244.663V485.619L245.994 487.068C244.143 490.042 241.976 492.229 239.492 493.627C237.033 494.999 233.953 495.686 230.253 495.686ZM232.078 488.365C234.156 488.365 235.931 487.996 237.401 487.259C238.871 486.522 240.037 485.619 240.899 484.552C241.786 483.484 242.382 482.48 242.686 481.539C243.167 480.37 243.434 479.035 243.484 477.536C243.56 476.01 243.598 474.778 243.598 473.837L246.412 474.676C243.649 475.108 241.279 475.489 239.302 475.82C237.325 476.15 235.626 476.468 234.207 476.773C232.787 477.053 231.533 477.37 230.443 477.726C229.378 478.108 228.478 478.552 227.743 479.061C227.008 479.569 226.438 480.154 226.032 480.815C225.652 481.476 225.462 482.251 225.462 483.141C225.462 484.158 225.715 485.06 226.222 485.848C226.729 486.611 227.464 487.221 228.427 487.678C229.416 488.136 230.633 488.365 232.078 488.365Z" fill="white"/>
<path d="M282.318 495.686C278.313 495.686 274.955 494.733 272.242 492.826C269.53 490.919 267.489 488.327 266.121 485.047C264.752 481.743 264.067 478.044 264.067 473.951C264.067 469.808 264.752 466.097 266.121 462.817C267.489 459.538 269.492 456.958 272.128 455.077C274.79 453.17 278.072 452.217 281.976 452.217C285.854 452.217 289.213 453.17 292.052 455.077C294.916 456.958 297.134 459.538 298.706 462.817C300.277 466.071 301.063 469.782 301.063 473.951C301.063 478.069 300.29 481.768 298.744 485.047C297.198 488.327 295.018 490.919 292.204 492.826C289.39 494.733 286.095 495.686 282.318 495.686ZM262.509 512.845V453.361H270.607V482.264H271.748V512.845H262.509ZM280.911 487.45C283.294 487.45 285.259 486.852 286.805 485.657C288.351 484.463 289.492 482.849 290.227 480.815C290.987 478.756 291.367 476.468 291.367 473.951C291.367 471.46 290.987 469.198 290.227 467.164C289.466 465.105 288.288 463.478 286.691 462.283C285.094 461.063 283.066 460.453 280.607 460.453C278.275 460.453 276.374 461.025 274.904 462.169C273.434 463.288 272.344 464.864 271.634 466.897C270.949 468.905 270.607 471.257 270.607 473.951C270.607 476.621 270.949 478.972 271.634 481.006C272.344 483.039 273.446 484.628 274.942 485.772C276.463 486.89 278.453 487.45 280.911 487.45Z" fill="white"/>
<path d="M327.277 495.686C323.043 495.686 319.431 494.745 316.44 492.864C313.449 490.958 311.155 488.365 309.558 485.086C307.987 481.806 307.188 478.095 307.163 473.951C307.188 469.732 308.012 465.995 309.634 462.741C311.282 459.462 313.614 456.894 316.63 455.039C319.647 453.158 323.234 452.217 327.391 452.217C332.055 452.217 335.996 453.399 339.216 455.763C342.46 458.102 344.577 461.305 345.565 465.372L336.44 467.851C335.73 465.639 334.552 463.923 332.904 462.703C331.256 461.457 329.381 460.835 327.277 460.835C324.894 460.835 322.929 461.406 321.383 462.55C319.837 463.669 318.696 465.22 317.961 467.202C317.226 469.185 316.858 471.435 316.858 473.951C316.858 477.866 317.733 481.031 319.482 483.446C321.231 485.861 323.829 487.068 327.277 487.068C329.71 487.068 331.624 486.509 333.018 485.391C334.437 484.272 335.502 482.658 336.212 480.548L345.565 482.645C344.298 486.84 342.08 490.068 338.911 492.33C335.743 494.567 331.865 495.686 327.277 495.686Z" fill="white"/>
<path d="M363.266 494.542V461.521H349.54V453.361H386.155V461.521H372.429V494.542H363.266Z" fill="white"/>
<path d="M393.285 494.542V453.361H411.953C413.297 453.361 414.552 453.437 415.718 453.59C416.884 453.742 417.885 453.933 418.721 454.162C420.699 454.746 422.448 455.89 423.969 457.593C425.489 459.271 426.25 461.597 426.25 464.571C426.25 466.325 425.971 467.774 425.413 468.918C424.856 470.037 424.121 470.977 423.208 471.74C422.777 472.096 422.334 472.401 421.877 472.655C421.421 472.909 420.965 473.113 420.509 473.265C421.497 473.418 422.435 473.71 423.322 474.142C424.716 474.828 425.882 475.845 426.82 477.192C427.783 478.54 428.265 480.434 428.265 482.874C428.265 485.645 427.593 487.983 426.25 489.89C424.932 491.771 422.993 493.08 420.432 493.817C419.495 494.072 418.417 494.262 417.201 494.389C415.984 494.491 414.742 494.542 413.474 494.542H393.285ZM402.562 487.45H412.828C413.36 487.45 413.943 487.399 414.577 487.297C415.211 487.195 415.781 487.056 416.288 486.878C417.201 486.547 417.86 485.963 418.265 485.124C418.696 484.285 418.912 483.408 418.912 482.493C418.912 481.247 418.595 480.256 417.961 479.518C417.353 478.756 416.618 478.247 415.756 477.993C415.249 477.79 414.691 477.675 414.083 477.65C413.5 477.599 413.018 477.574 412.638 477.574H402.562V487.45ZM402.562 470.367H410.166C410.952 470.367 411.713 470.329 412.448 470.253C413.208 470.151 413.842 469.986 414.349 469.757C415.185 469.427 415.794 468.867 416.174 468.079C416.58 467.291 416.782 466.414 416.782 465.448C416.782 464.431 416.554 463.516 416.098 462.703C415.667 461.864 414.97 461.305 414.007 461.025C413.373 460.771 412.6 460.631 411.687 460.606C410.8 460.58 410.23 460.568 409.976 460.568H402.562V470.367Z" fill="white"/>
<path d="M454.508 495.686C450.351 495.686 446.7 494.783 443.557 492.979C440.414 491.174 437.955 488.67 436.181 485.467C434.432 482.264 433.557 478.578 433.557 474.409C433.557 469.91 434.419 466.008 436.143 462.703C437.867 459.373 440.262 456.793 443.329 454.962C446.396 453.132 449.945 452.217 453.975 452.217C458.234 452.217 461.846 453.221 464.812 455.229C467.803 457.212 470.021 460.021 471.466 463.656C472.91 467.291 473.455 471.575 473.101 476.506H464.013V473.151C463.988 468.677 463.202 465.41 461.656 463.351C460.11 461.292 457.676 460.263 454.356 460.263C450.604 460.263 447.816 461.432 445.991 463.771C444.166 466.084 443.253 469.477 443.253 473.951C443.253 478.12 444.166 481.349 445.991 483.637C447.816 485.924 450.477 487.068 453.975 487.068C456.231 487.068 458.17 486.573 459.793 485.581C461.44 484.564 462.708 483.103 463.595 481.196L472.644 483.942C471.073 487.653 468.639 490.538 465.344 492.597C462.074 494.656 458.462 495.686 454.508 495.686ZM440.363 476.506V469.566H468.614V476.506H440.363Z" fill="white"/>
<path d="M481.508 494.542V453.361H490.672V469.605H509.112V453.361H518.276V494.542H509.112V478.222H490.672V494.542H481.508Z" fill="white"/>
<path d="M528.813 494.542V453.361H537.977V469.605H556.418V453.361H565.581V494.542H556.418V478.222H537.977V494.542H528.813Z" fill="white"/>
<path d="M576.156 494.542L576.118 453.361H585.282V467.088H589.883C591.023 467.088 592.303 467.113 593.723 467.164C595.168 467.215 596.372 467.329 597.335 467.507C599.642 468.016 601.606 468.829 603.228 469.948C604.876 471.066 606.131 472.528 606.993 474.333C607.854 476.138 608.285 478.311 608.285 480.853C608.285 484.488 607.347 487.399 605.472 489.585C603.596 491.746 600.972 493.22 597.601 494.008C596.612 494.237 595.383 494.389 593.913 494.466C592.443 494.516 591.137 494.542 589.997 494.542H576.156ZM585.282 487.335H590.795C591.353 487.335 591.974 487.31 592.658 487.259C593.343 487.208 593.989 487.094 594.597 486.916C595.738 486.611 596.752 485.924 597.639 484.857C598.526 483.764 598.97 482.429 598.97 480.853C598.97 479.201 598.526 477.841 597.639 476.773C596.752 475.705 595.662 475.006 594.369 474.676C593.761 474.523 593.14 474.422 592.506 474.371C591.898 474.32 591.327 474.295 590.795 474.295H585.282V487.335ZM612.582 494.542V453.361H621.745V494.542H612.582Z" fill="white"/>
<path d="M651.384 448.709C649.28 448.709 647.354 448.188 645.605 447.146C643.856 446.103 642.462 444.718 641.422 442.989C640.383 441.235 639.864 439.291 639.864 437.155H647.012C647.012 438.376 647.43 439.418 648.266 440.282C649.128 441.121 650.168 441.54 651.384 441.54C652.601 441.54 653.628 441.121 654.464 440.282C655.326 439.418 655.757 438.376 655.757 437.155H662.905C662.905 439.291 662.385 441.235 661.346 442.989C660.307 444.718 658.913 446.103 657.164 447.146C655.415 448.188 653.488 448.709 651.384 448.709ZM668 453.361V494.542H659.217V467.66L639.673 494.542H632.335V453.361H641.118V479.557L660.738 453.361H668Z" fill="white"/>
<path d="M9.84778 600L17.7564 578.227L17.9085 584.633L0 540.516H9.5436L22.2431 573.156H19.8096L32.1669 540.516H41.3303L18.4408 600H9.84778Z" fill="white"/>
<path d="M46.9249 581.697V540.516H56.0883V556.76H74.5291V540.516H83.6925V581.697H74.5291V565.377H56.0883V581.697H46.9249Z" fill="white"/>
<path d="M129.895 540.516V581.697H121.112V554.815L101.568 581.697H94.23V540.516H103.013V566.712L122.633 540.516H129.895Z" fill="white"/>
<path d="M140.495 581.697V540.516H159.164C160.508 540.516 161.763 540.593 162.929 540.745C164.095 540.898 165.096 541.088 165.932 541.317C167.91 541.902 169.659 543.046 171.179 544.749C172.7 546.427 173.461 548.753 173.461 551.727C173.461 553.481 173.182 554.93 172.624 556.074C172.067 557.192 171.332 558.133 170.419 558.895C169.988 559.251 169.545 559.556 169.088 559.81C168.632 560.065 168.176 560.268 167.719 560.421C168.708 560.573 169.646 560.865 170.533 561.298C171.927 561.984 173.093 563.001 174.031 564.348C174.994 565.695 175.476 567.589 175.476 570.029C175.476 572.8 174.804 575.139 173.461 577.045C172.143 578.927 170.204 580.236 167.643 580.973C166.706 581.227 165.628 581.418 164.412 581.545C163.195 581.646 161.953 581.697 160.685 581.697H140.495ZM149.773 574.605H160.039C160.571 574.605 161.154 574.554 161.788 574.453C162.422 574.351 162.992 574.211 163.499 574.033C164.412 573.703 165.071 573.118 165.476 572.279C165.907 571.44 166.123 570.563 166.123 569.648C166.123 568.403 165.806 567.411 165.172 566.674C164.564 565.911 163.829 565.403 162.967 565.149C162.46 564.945 161.902 564.831 161.294 564.806C160.711 564.755 160.229 564.729 159.849 564.729H149.773V574.605ZM149.773 557.523H157.377C158.163 557.523 158.924 557.484 159.659 557.408C160.419 557.307 161.053 557.141 161.56 556.913C162.396 556.582 163.005 556.023 163.385 555.235C163.79 554.447 163.993 553.57 163.993 552.604C163.993 551.587 163.765 550.672 163.309 549.858C162.878 549.019 162.181 548.46 161.218 548.181C160.584 547.926 159.811 547.787 158.898 547.761C158.011 547.736 157.441 547.723 157.187 547.723H149.773V557.523Z" fill="white"/>
<path d="M201.719 582.841C197.561 582.841 193.911 581.939 190.768 580.134C187.625 578.329 185.166 575.825 183.392 572.622C181.643 569.419 180.768 565.733 180.768 561.564C180.768 557.065 181.63 553.163 183.354 549.858C185.077 546.528 187.473 543.948 190.54 542.118C193.607 540.288 197.156 539.372 201.186 539.372C205.445 539.372 209.057 540.377 212.023 542.385C215.014 544.368 217.232 547.177 218.677 550.812C220.121 554.447 220.666 558.73 220.311 563.662H211.224V560.306C211.199 555.832 210.413 552.566 208.867 550.507C207.321 548.448 204.887 547.418 201.566 547.418C197.815 547.418 195.027 548.587 193.202 550.926C191.376 553.239 190.464 556.633 190.464 561.107C190.464 565.276 191.376 568.504 193.202 570.792C195.027 573.08 197.688 574.224 201.186 574.224C203.442 574.224 205.381 573.728 207.004 572.737C208.651 571.72 209.919 570.258 210.806 568.352L219.855 571.097C218.284 574.808 215.85 577.694 212.555 579.753C209.285 581.812 205.673 582.841 201.719 582.841ZM187.574 563.662V556.722H215.825V563.662H187.574Z" fill="white"/>
<path d="M248.529 582.841C244.524 582.841 241.165 581.888 238.453 579.981C235.741 578.075 233.7 575.482 232.331 572.203C230.962 568.898 230.278 565.2 230.278 561.107C230.278 556.963 230.962 553.252 232.331 549.973C233.7 546.694 235.703 544.113 238.339 542.232C241 540.326 244.283 539.372 248.187 539.372C252.065 539.372 255.424 540.326 258.263 542.232C261.127 544.113 263.345 546.694 264.916 549.973C266.488 553.227 267.274 556.938 267.274 561.107C267.274 565.225 266.501 568.924 264.954 572.203C263.408 575.482 261.228 578.075 258.415 579.981C255.601 581.888 252.306 582.841 248.529 582.841ZM228.719 600V540.516H236.818V569.419H237.959V600H228.719ZM247.122 574.605C249.505 574.605 251.469 574.008 253.015 572.813C254.562 571.618 255.702 570.004 256.437 567.97C257.198 565.911 257.578 563.623 257.578 561.107C257.578 558.616 257.198 556.353 256.437 554.32C255.677 552.261 254.498 550.634 252.901 549.439C251.304 548.219 249.277 547.609 246.818 547.609C244.486 547.609 242.585 548.181 241.114 549.325C239.644 550.443 238.554 552.019 237.845 554.053C237.16 556.061 236.818 558.412 236.818 561.107C236.818 563.776 237.16 566.127 237.845 568.161C238.554 570.195 239.657 571.783 241.152 572.927C242.673 574.046 244.663 574.605 247.122 574.605Z" fill="white"/>
<path d="M293.487 582.841C289.254 582.841 285.642 581.901 282.651 580.02C279.66 578.113 277.366 575.52 275.769 572.241C274.197 568.962 273.399 565.25 273.373 561.107C273.399 556.887 274.223 553.15 275.845 549.896C277.493 546.617 279.825 544.05 282.841 542.194C285.857 540.313 289.444 539.372 293.601 539.372C298.265 539.372 302.207 540.555 305.426 542.919C308.671 545.257 310.787 548.46 311.776 552.527L302.651 555.006C301.941 552.794 300.762 551.079 299.115 549.858C297.467 548.613 295.591 547.99 293.487 547.99C291.105 547.99 289.14 548.562 287.594 549.706C286.048 550.824 284.907 552.375 284.172 554.358C283.437 556.341 283.069 558.59 283.069 561.107C283.069 565.022 283.944 568.186 285.693 570.601C287.442 573.016 290.04 574.224 293.487 574.224C295.921 574.224 297.834 573.665 299.229 572.546C300.648 571.428 301.713 569.813 302.422 567.703L311.776 569.801C310.509 573.995 308.291 577.223 305.122 579.486C301.954 581.723 298.075 582.841 293.487 582.841Z" fill="white"/>
<path d="M354.984 540.516V581.697H346.201V554.815L326.658 581.697H319.319V540.516H328.102V566.712L347.722 540.516H354.984Z" fill="white"/>
<path d="M375.965 581.697V548.676H362.239V540.516H398.854V548.676H385.128V581.697H375.965Z" fill="white"/>
<path d="M424.728 582.841C420.571 582.841 416.921 581.939 413.778 580.134C410.635 578.329 408.176 575.825 406.402 572.622C404.653 569.419 403.778 565.733 403.778 561.564C403.778 557.065 404.64 553.163 406.364 549.858C408.087 546.528 410.483 543.948 413.55 542.118C416.617 540.288 420.166 539.372 424.196 539.372C428.455 539.372 432.067 540.377 435.032 542.385C438.024 544.368 440.242 547.177 441.686 550.812C443.131 554.447 443.676 558.73 443.321 563.662H434.234V560.306C434.209 555.832 433.423 552.566 431.877 550.507C430.33 548.448 427.897 547.418 424.576 547.418C420.825 547.418 418.036 548.587 416.211 550.926C414.386 553.239 413.474 556.633 413.474 561.107C413.474 565.276 414.386 568.504 416.211 570.792C418.036 573.08 420.698 574.224 424.196 574.224C426.452 574.224 428.391 573.728 430.014 572.737C431.661 571.72 432.929 570.258 433.816 568.352L442.865 571.097C441.293 574.808 438.86 577.694 435.565 579.753C432.295 581.812 428.683 582.841 424.728 582.841ZM410.584 563.662V556.722H438.835V563.662H410.584Z" fill="white"/>
<path d="M460.847 581.697V548.676H447.121V540.516H483.736V548.676H470.01V581.697H460.847Z" fill="white"/>
</svg>
